<svg width="39" height="36" viewBox="0 0 39 36" fill="none" xmlns="http://www.w3.org/2000/svg">
<ellipse opacity="0.1" cx="19.2222" cy="18" rx="18.8421" ry="18" fill="#F2994A"/>
<g clip-path="url(#clip0_644_3571)">
<path d="M19 9.0625C17.2323 9.0625 15.5044 9.58668 14.0346 10.5687C12.5648 11.5508 11.4193 12.9467 10.7428 14.5798C10.0664 16.2129 9.88938 18.0099 10.2342 19.7436C10.5791 21.4773 11.4303 23.0698 12.6802 24.3198C13.9302 25.5697 15.5227 26.4209 17.2564 26.7658C18.9901 27.1106 20.7871 26.9336 22.4202 26.2572C24.0534 25.5807 25.4492 24.4352 26.4313 22.9654C27.4133 21.4956 27.9375 19.7677 27.9375 18C27.935 15.6304 26.9926 13.3586 25.317 11.683C23.6414 10.0074 21.3696 9.065 19 9.0625ZM19 23.5C18.796 23.5 18.5967 23.4395 18.4271 23.3262C18.2575 23.2129 18.1253 23.0518 18.0473 22.8634C17.9692 22.675 17.9488 22.4676 17.9886 22.2676C18.0284 22.0675 18.1266 21.8838 18.2708 21.7395C18.415 21.5953 18.5988 21.4971 18.7988 21.4573C18.9989 21.4175 19.2062 21.4379 19.3946 21.516C19.5831 21.5941 19.7441 21.7262 19.8575 21.8958C19.9708 22.0654 20.0313 22.2648 20.0313 22.4688C20.0313 22.7423 19.9226 23.0046 19.7292 23.198C19.5358 23.3913 19.2735 23.5 19 23.5ZM19.6875 19.3131V19.375C19.6875 19.5573 19.6151 19.7322 19.4861 19.8611C19.3572 19.9901 19.1823 20.0625 19 20.0625C18.8177 20.0625 18.6428 19.9901 18.5139 19.8611C18.3849 19.7322 18.3125 19.5573 18.3125 19.375V18.6875C18.3125 18.5052 18.3849 18.3303 18.5139 18.2014C18.6428 18.0724 18.8177 18 19 18C20.137 18 21.0625 17.2266 21.0625 16.2812C21.0625 15.3359 20.137 14.5625 19 14.5625C17.8631 14.5625 16.9375 15.3359 16.9375 16.2812V16.625C16.9375 16.8073 16.8651 16.9822 16.7361 17.1111C16.6072 17.2401 16.4323 17.3125 16.25 17.3125C16.0677 17.3125 15.8928 17.2401 15.7639 17.1111C15.6349 16.9822 15.5625 16.8073 15.5625 16.625V16.2812C15.5625 14.5754 17.1042 13.1875 19 13.1875C20.8958 13.1875 22.4375 14.5754 22.4375 16.2812C22.4375 17.7748 21.255 19.0252 19.6875 19.3131Z" fill="#F2C94C"/>
</g>
<defs>
<clipPath id="clip0_644_3571">
<rect width="22" height="22" fill="white" transform="translate(8 7)"/>
</clipPath>
</defs>
</svg>
