<svg width="38" height="36" viewBox="0 0 38 36" fill="none" xmlns="http://www.w3.org/2000/svg">
<ellipse opacity="0.1" cx="18.8421" cy="18" rx="18.8421" ry="18" fill="#F2994A"/>
<path opacity="0.4" d="M16.1919 14.8825C16.2291 14.8771 16.2665 14.872 16.3039 14.8673C16.4372 14.8505 16.6139 14.8268 16.8267 14.7973C17.4802 14.7255 18.203 14.6914 19 14.6914C24.522 14.6914 26.48 16.3157 26.48 20.8982C26.48 25.4815 24.522 27.1058 19 27.1058C13.478 27.1058 11.52 25.4815 11.52 20.8982C11.52 18.4226 12.0943 16.8128 13.4902 15.8547C13.8561 15.6298 14.7838 15.1643 15.8351 14.9459C15.9514 14.9232 16.0703 14.9021 16.1919 14.8825Z" fill="#F2994A"/>
<path d="M15.5063 15.0158V13.7031C15.5366 11.802 17.05 10.294 18.953 10.2693C19.8981 10.2436 20.7698 10.6103 21.4381 11.262C22.1054 11.9138 22.4803 12.7855 22.4913 13.7105V15.0153C23.0049 15.1346 23.4619 15.2889 23.8663 15.4812V13.7022C23.8498 12.4015 23.3292 11.185 22.3969 10.2775C21.4665 9.37004 20.2253 8.91995 18.9347 8.89429C16.2846 8.9282 14.1744 11.031 14.1313 13.693V15.487L15.5063 15.0158Z" fill="#F2994A"/>
<path d="M19.6873 22.0734C19.6873 22.4529 19.3793 22.7609 18.9998 22.7609C18.6203 22.7609 18.3123 22.4529 18.3123 22.0734V20.0375C18.3123 19.658 18.6203 19.35 18.9998 19.35C19.3793 19.35 19.6873 19.658 19.6873 20.0375V22.0734Z" fill="#F2994A"/>
</svg>
