<svg width="44" height="32" viewBox="0 0 44 32" fill="none" xmlns="http://www.w3.org/2000/svg">
<g id="Frame 1000005251">
<g id="Group 469336">
<rect id="Rectangle 3" x="7.5" width="36" height="32" rx="8" fill="#2BA170"/>
<rect id="Rectangle 2" x="0.5" width="36" height="32" rx="8" fill="#FFDB99"/>
<rect id="Rectangle 1" x="4" width="36" height="32" rx="8" fill="white"/>
<path id="Plus Icon" d="M21.0319 11C20.7982 11 20.6088 11.1894 20.6088 11.4231V15.4423H16.5896C16.3559 15.4423 16.1665 15.6317 16.1665 15.8654V17.1346C16.1665 17.3683 16.3559 17.5577 16.5896 17.5577H20.6088V21.5769C20.6088 21.8106 20.7982 22 21.0319 22H22.3011C22.5348 22 22.7242 21.8106 22.7242 21.5769V17.5577H26.7434C26.9771 17.5577 27.1665 17.3683 27.1665 17.1346V15.8654C27.1665 15.6317 26.9771 15.4423 26.7434 15.4423H22.7242V11.4231C22.7242 11.1894 22.5348 11 22.3011 11H21.0319Z" fill="#1A1A1A"/>
</g>
</g>
</svg>
